<?xml version="1.0" encoding="UTF-8"?>
<svg width="120px" height="30px" viewBox="0 0 120 30" version="1.1" xmlns="http://www.w3.org/2000/svg" xmlns:xlink="http://www.w3.org/1999/xlink">
    <!-- Generator: Sketch 52.6 (67491) - http://www.bohemiancoding.com/sketch -->
    <title>Aaron Copy</title>
    <desc>Created with Sketch.</desc>
    <g id="Page-1" stroke="none" stroke-width="1" fill="none" fill-rule="evenodd">
        <path d="M0.44921875,29 L11.6992188,0.09375 L17.7148438,0.09375 L28.9648438,29 L22.7929688,29 L19.7851562,21.2851562 L7.83203125,21.2851562 L4.82421875,29 L0.44921875,29 Z M9.31640625,17.4375 L18.3007812,17.4375 L13.8085938,5.9140625 L9.31640625,17.4375 Z M43.5742188,26.6953125 C41.6471258,28.557301 39.5833443,29.4882812 37.3828125,29.4882812 C35.5078031,29.4882812 33.9843809,28.9153703 32.8125,27.7695312 C31.6406191,26.6236922 31.0546875,25.139332 31.0546875,23.3164062 C31.0546875,20.9466027 32.0019437,19.1204491 33.8964844,17.8378906 C35.7910251,16.5553321 38.5025865,15.9140625 42.03125,15.9140625 L43.5742188,15.9140625 L43.5742188,13.9609375 C43.5742188,11.7343639 42.3047002,10.6210938 39.765625,10.6210938 C37.5130096,10.6210938 35.2343865,11.2591082 32.9296875,12.5351562 L32.9296875,8.55078125 C35.5468881,7.56119297 38.138008,7.06640625 40.703125,7.06640625 C46.3151322,7.06640625 49.1210938,9.29945684 49.1210938,13.765625 L49.1210938,23.2578125 C49.1210938,24.9375084 49.6614529,25.7773438 50.7421875,25.7773438 C50.937501,25.7773438 51.1914047,25.7513023 51.5039062,25.6992188 L51.640625,28.9414062 C50.4166605,29.3059914 49.3359422,29.4882812 48.3984375,29.4882812 C46.028634,29.4882812 44.5052117,28.557301 43.828125,26.6953125 L43.5742188,26.6953125 Z M43.5742188,23.5898438 L43.5742188,19.234375 L42.2070312,19.234375 C38.4700334,19.234375 36.6015625,20.4062383 36.6015625,22.75 C36.6015625,23.5442748 36.8717421,24.2115858 37.4121094,24.7519531 C37.9524767,25.2923204 38.6197877,25.5625 39.4140625,25.5625 C40.7682359,25.5625 42.1549408,24.9049545 43.5742188,23.5898438 Z M56.5820312,29 L56.5820312,7.5546875 L62.3632812,7.5546875 L62.3632812,11.5976562 C63.8606846,8.57680781 66.1393076,7.06640625 69.1992188,7.06640625 C69.5638039,7.06640625 69.9218732,7.10546836 70.2734375,7.18359375 L70.2734375,12.3398438 C69.4531209,12.0403631 68.6914098,11.890625 67.9882812,11.890625 C65.6835822,11.890625 63.808601,13.0559779 62.3632812,15.3867188 L62.3632812,29 L56.5820312,29 Z M83.7695312,29.4882812 C80.4231604,29.4882812 77.7636817,28.4759216 75.7910156,26.4511719 C73.8183495,24.4264222 72.8320312,21.70184 72.8320312,18.2773438 C72.8320312,14.8137848 73.8248599,12.0794371 75.8105469,10.0742188 C77.7962339,8.06900039 80.4947746,7.06640625 83.90625,7.06640625 C87.3307463,7.06640625 90.0357974,8.06900039 92.0214844,10.0742188 C94.0071714,12.0794371 95,14.8007641 95,18.2382812 C95,21.7539238 94.0039162,24.5078025 92.0117188,26.5 C90.0195213,28.4921975 87.2721529,29.4882812 83.7695312,29.4882812 Z M83.8671875,25.875 C87.1875166,25.875 88.8476562,23.3294525 88.8476562,18.2382812 C88.8476562,15.9075404 88.4082075,14.0651109 87.5292969,12.7109375 C86.6503862,11.3567641 85.442716,10.6796875 83.90625,10.6796875 C82.3828049,10.6796875 81.181645,11.3567641 80.3027344,12.7109375 C79.4238237,14.0651109 78.984375,15.9205611 78.984375,18.2773438 C78.984375,20.6080846 79.4205686,22.4570244 80.2929688,23.8242188 C81.1653689,25.1914131 82.3567633,25.875 83.8671875,25.875 Z M100.3125,29 L100.3125,7.5546875 L106.09375,7.5546875 L106.09375,11.5976562 C107.98178,8.57680781 110.416652,7.06640625 113.398438,7.06640625 C115.31251,7.06640625 116.822911,7.67186895 117.929688,8.8828125 C119.036464,10.0937561 119.589844,11.7473854 119.589844,13.84375 L119.589844,29 L113.808594,29 L113.808594,15.2695312 C113.808594,12.8346232 113.00131,11.6171875 111.386719,11.6171875 C109.550772,11.6171875 107.786467,12.9127475 106.09375,15.5039062 L106.09375,29 L100.3125,29 Z" id="Aaron-Copy" fill="#C5D0E0"></path>
    </g>
</svg>